<svg id="f648f657-6e61-476a-8bab-7ba91a6ca382" data-name="Layer 7" xmlns="http://www.w3.org/2000/svg" viewBox="0 0 500 122"><path d="M28.32,20.79h72.43a0,0,0,0,1,0,0v80.42a0,0,0,0,1,0,0H30.21a8.39,8.39,0,0,1-8.39-8.39V27.29A6.5,6.5,0,0,1,28.32,20.79Z" fill="#00ff01"/><path d="M180.07,121.65H21.44A21.45,21.45,0,0,1,0,100.23V21.77A21.45,21.45,0,0,1,21.44.35H180.07a21.45,21.45,0,0,1,21.42,21.42v78.46A21.45,21.45,0,0,1,180.07,121.65ZM21.44,7.13A14.66,14.66,0,0,0,6.8,21.77v78.46a14.66,14.66,0,0,0,14.64,14.64H180.07a14.66,14.66,0,0,0,14.64-14.64V21.77A14.66,14.66,0,0,0,180.07,7.13Z" fill="#fff"/><path d="M172.48,20.79H100.86v80.42h71.62a8.8,8.8,0,0,0,8.8-8.81V29.6A8.8,8.8,0,0,0,172.48,20.79ZM163.26,85.4H154.6L129.42,55.56V85.4H118.88V36.47h8.22l25.62,30.35V36.47h10.54Z"/><polygon points="163.26 36.47 163.26 85.4 154.6 85.4 129.42 55.56 129.42 85.4 118.88 85.4 118.88 36.47 127.1 36.47 152.72 66.82 152.72 36.47 163.26 36.47"/><polygon points="163.26 36.47 163.26 85.4 154.6 85.4 129.42 55.56 129.42 85.4 118.88 85.4 118.88 36.47 127.1 36.47 152.72 66.82 152.72 36.47 163.26 36.47" fill="#fff"/><path d="M61.66,86.23A24.81,24.81,0,1,1,86.47,61.42,24.84,24.84,0,0,1,61.66,86.23Zm0-39.08A14.27,14.27,0,1,0,75.93,61.42,14.28,14.28,0,0,0,61.66,47.15Z"/><path d="M171.59,103.8H30.13A12.3,12.3,0,0,1,17.85,91.51v-61A12.3,12.3,0,0,1,30.13,18.2H171.59a12.3,12.3,0,0,1,12.28,12.29v61A12.3,12.3,0,0,1,171.59,103.8ZM30.13,23.37A7.13,7.13,0,0,0,23,30.49v61a7.13,7.13,0,0,0,7.12,7.12H171.59a7.13,7.13,0,0,0,7.12-7.12v-61a7.13,7.13,0,0,0-7.12-7.12Z" fill="#fff"/><path d="M226.13,87.8V35.7H252.4a35.18,35.18,0,0,1,12.28,2A27.54,27.54,0,0,1,274,43.33a25.28,25.28,0,0,1,5.95,8.34A25,25,0,0,1,274,80.21a27.72,27.72,0,0,1-9.34,5.58,35.33,35.33,0,0,1-12.25,2Zm16.08-9.9-2.76-3.79H252a15.51,15.51,0,0,0,5.84-1,12.48,12.48,0,0,0,4.28-2.8,11.62,11.62,0,0,0,2.57-3.94,12.6,12.6,0,0,0,0-9.15,11.45,11.45,0,0,0-2.6-4,13.22,13.22,0,0,0-4.28-2.79,15.28,15.28,0,0,0-5.81-1h-12.8l3-3.65Z" fill="#fff"/><path d="M289.17,87.8V35.7H316.7a27.25,27.25,0,0,1,11.13,2,15.39,15.39,0,0,1,7,5.84,16.6,16.6,0,0,1,2.38,9,17.14,17.14,0,0,1-9.6,15.81,22.13,22.13,0,0,1-10.2,2.27H304.2V87.8Zm15-28.28h10.94a7,7,0,0,0,3.2-.67,5.44,5.44,0,0,0,2.16-1.93,5.63,5.63,0,0,0,.82-3.13,5.23,5.23,0,0,0-.82-3A5,5,0,0,0,318.23,49a9,9,0,0,0-3.39-.59H304.2ZM321.77,87.8,306,64.28l16.59-1.86L339.85,87.8Z" fill="#fff"/><path d="M373.86,88.55a37.87,37.87,0,0,1-12.69-2,30.66,30.66,0,0,1-10-5.69,25,25,0,0,1-6.47-8.64,25.61,25.61,0,0,1-2.27-10.79,25.28,25.28,0,0,1,2.3-10.83A25.6,25.6,0,0,1,351.27,42a31,31,0,0,1,9.94-5.7,37.26,37.26,0,0,1,12.58-2,38.22,38.22,0,0,1,12.72,2,29.83,29.83,0,0,1,9.94,5.69,25.82,25.82,0,0,1,0,38.92,29.85,29.85,0,0,1-9.94,5.7A38,38,0,0,1,373.86,88.55Zm0-14.89a18.78,18.78,0,0,0,6-.93,14.4,14.4,0,0,0,4.73-2.6,12.33,12.33,0,0,0,3.08-3.91,11,11,0,0,0,0-9.68,12.29,12.29,0,0,0-3.08-3.9A14.24,14.24,0,0,0,379.85,50a19.88,19.88,0,0,0-12,0A15.76,15.76,0,0,0,363,52.6a11,11,0,0,0-3.12,3.91,11.54,11.54,0,0,0,0,9.75,11.05,11.05,0,0,0,3.12,3.9,15.54,15.54,0,0,0,4.8,2.57A18.78,18.78,0,0,0,373.86,73.66Z" fill="#fff"/><path d="M412.87,87.88V35.78h18.78v52.1Z" fill="#fff"/><path d="M444.09,87.84V35.74h26.27a35.18,35.18,0,0,1,12.28,2,27.33,27.33,0,0,1,9.3,5.62,25.31,25.31,0,0,1,6,8.34,25,25,0,0,1-6,28.54,27.62,27.62,0,0,1-9.34,5.58,35.23,35.23,0,0,1-12.24,2Zm16.08-9.9-2.76-3.8H470a15.32,15.32,0,0,0,5.84-1,12.32,12.32,0,0,0,4.28-2.79,11.62,11.62,0,0,0,2.57-3.94,12.76,12.76,0,0,0,0-9.16,11.4,11.4,0,0,0-2.61-3.94,12.7,12.7,0,0,0-4.28-2.79,15,15,0,0,0-5.8-1h-12.8l3-3.65Z" fill="#fff"/></svg>